<svg width="32" height="32" viewBox="0 0 32 32" fill="none" xmlns="http://www.w3.org/2000/svg">
  <!-- Background circle with white border -->
  <circle cx="16" cy="16" r="15" fill="black" stroke="white" stroke-width="1.5"/>
  
  <!-- Newspaper (left side, slightly folded) -->
  <g transform="translate(5, 7)">
    <!-- Folded spine on left -->
    <path d="M 0 0 L 0 18 L 1.5 18 L 1.5 0 Z" fill="white" opacity="0.7"/>
    
    <!-- Newspaper body -->
    <rect x="1.5" y="0" width="16" height="18" fill="none" stroke="white" stroke-width="1.2" rx="0.5"/>
    
    <!-- Text lines -->
    <line x1="3.5" y1="2.5" x2="15" y2="2.5" stroke="white" stroke-width="0.8"/>
    <line x1="3.5" y1="4.5" x2="14" y2="4.5" stroke="white" stroke-width="0.8"/>
    <line x1="3.5" y1="6.5" x2="15" y2="6.5" stroke="white" stroke-width="0.8"/>
    <line x1="3.5" y1="8.5" x2="13" y2="8.5" stroke="white" stroke-width="0.8"/>
    <line x1="3.5" y1="10.5" x2="14.5" y2="10.5" stroke="white" stroke-width="0.8"/>
    <line x1="3.5" y1="12.5" x2="12" y2="12.5" stroke="white" stroke-width="0.8"/>
    <line x1="3.5" y1="14.5" x2="15" y2="14.5" stroke="white" stroke-width="0.8"/>
    <line x1="3.5" y1="16.5" x2="13.5" y2="16.5" stroke="white" stroke-width="0.8"/>
    
    <!-- Image/headline box (darker rectangle) -->
    <rect x="3.5" y="0.5" width="7" height="4" fill="white" opacity="0.5"/>
  </g>
  
  <!-- Speech bubble (top right, with dripping effect) -->
  <g transform="translate(17, 4)">
    <!-- Main bubble body -->
    <path d="M 0 3 Q 0 1 2 1 L 9 1 Q 11 1 11 3 L 11 7 Q 11 9 9 9 L 3 9 L 1 11 L 1 9 Q -1 9 -1 7 Z" fill="white"/>
    
    <!-- Dripping/melting effect at bottom -->
    <path d="M 1 9 L 0.5 10.5 L 1.5 10.5 L 2 9.5 L 2.5 10.5 L 3.5 10.5 L 3 9" fill="white"/>
    <path d="M 3 9 L 2.5 10 L 3.5 10 L 4 9.5 L 4.5 10 L 5.5 10 L 5 9" fill="white" opacity="0.8"/>
    <path d="M 5 9 L 4.5 9.8 L 5.5 9.8 L 6 9.3 L 6.3 9.8 L 7 9.8 L 6.5 9" fill="white" opacity="0.6"/>
  </g>
</svg>
