<svg xmlns="http://www.w3.org/2000/svg" viewBox="0 0 64 64" fill="none" stroke="currentColor" stroke-width="2" stroke-linecap="round" stroke-linejoin="round">
  <rect x="8" y="8" width="28" height="38" rx="1"/>
  <rect x="11" y="11" width="22" height="4" rx="0.5"/>
  <line x1="11" y1="17" x2="33" y2="17"/>
  <line x1="11" y1="21" x2="33" y2="21"/>
  <line x1="11" y1="25" x2="28" y2="25"/>
  <line x1="11" y1="31" x2="33" y2="31"/>
  <line x1="11" y1="35" x2="33" y2="35"/>
  <line x1="11" y1="39" x2="25" y2="39"/>
  <path d="M 42 20 Q 52 20 52 28 Q 52 36 42 36 L 40 40 L 42 36 Q 32 36 32 28 Q 32 20 42 20" fill="none" stroke="currentColor" stroke-width="2" stroke-linecap="round" stroke-linejoin="round"/>
  <circle cx="38" cy="28" r="1.5" fill="currentColor"/>
  <circle cx="44" cy="28" r="1.5" fill="currentColor"/>
  <circle cx="50" cy="28" r="1.5" fill="currentColor"/>
</svg>
